HIERARCHY
ROOT Hips
{
  OFFSET 0 89.5177 0.535
  CHANNELS 6 Xposition Yposition Zposition Zrotation Xrotation Yrotation
  JOINT Spine
  {
    OFFSET 12.0259 -0.162855 1.69034e-005
    CHANNELS 3 Zrotation Xrotation Yrotation
    JOINT Spine1
    {
      OFFSET 15.3169 -0.0121922 0
      CHANNELS 3 Zrotation Xrotation Yrotation
      JOINT Spine2
      {
        OFFSET 15.3176 -0.0121908 0
        CHANNELS 3 Zrotation Xrotation Yrotation
        JOINT Neck
        {
          OFFSET 19.9142 1.56338 0
          CHANNELS 3 Zrotation Xrotation Yrotation
          JOINT Head
          {
            OFFSET 6.92651 0 0
            CHANNELS 3 Zrotation Xrotation Yrotation
            End Site
            {
              OFFSET 20.7666 0 0
            }
          }
          JOINT LeftShoulder
          {
            OFFSET -6.20654 0.708824 7.28219
            CHANNELS 3 Zrotation Xrotation Yrotation
            JOINT LeftArm
            {
              OFFSET 14.108 0 -1.52588e-005
              CHANNELS 3 Zrotation Xrotation Yrotation
              JOINT LeftForeArm
              {
                OFFSET 28.5802 0 0
                CHANNELS 3 Zrotation Xrotation Yrotation
                JOINT LeftHand
                {
                  OFFSET 27.092 0 0
                  CHANNELS 3 Zrotation Xrotation Yrotation
                  End Site
                  {
                    OFFSET 9.55928 -0.186424 0.145352
                  }
                }
              }
            }
          }
          JOINT RightShoulder
          {
            OFFSET -6.20654 0.708866 -7.28218
            CHANNELS 3 Zrotation Xrotation Yrotation
            JOINT RightArm
            {
              OFFSET 14.108 0 1.52588e-005
              CHANNELS 3 Zrotation Xrotation Yrotation
              JOINT RightForeArm
              {
                OFFSET 28.5802 0 0
                CHANNELS 3 Zrotation Xrotation Yrotation
                JOINT RightHand
                {
                  OFFSET 27.092 0 0
                  CHANNELS 3 Zrotation Xrotation Yrotation
                  End Site
                  {
                    OFFSET 9.55929 -0.186417 -0.145354
                  }
                }
              }
            }
          }
        }
      }
    }
  }
  JOINT LeftUpLeg
  {
    OFFSET 0.005 -0.535 8.837
    CHANNELS 3 Zrotation Xrotation Yrotation
    JOINT LeftLeg
    {
      OFFSET 39.9035 0 0
      CHANNELS 3 Zrotation Xrotation Yrotation
      JOINT LeftFoot
      {
        OFFSET 39.6689 0 0
        CHANNELS 3 Zrotation Xrotation Yrotation
        JOINT LeftToe
        {
          OFFSET 10.1624 13.6296 0
          CHANNELS 3 Zrotation Xrotation Yrotation
          End Site
          {
            OFFSET 8.38147 0 0
          }
        }
      }
    }
  }
  JOINT RightUpLeg
  {
    OFFSET 0.005 -0.535 -8.837
    CHANNELS 3 Zrotation Xrotation Yrotation
    JOINT RightLeg
    {
      OFFSET 39.9035 0 0
      CHANNELS 3 Zrotation Xrotation Yrotation
      JOINT RightFoot
      {
        OFFSET 39.6689 0 0
        CHANNELS 3 Zrotation Xrotation Yrotation
        JOINT RightToe
        {
          OFFSET 10.1624 13.6296 0
          CHANNELS 3 Zrotation Xrotation Yrotation
          End Site
          {
            OFFSET 8.38147 0 0
          }
        }
      }
    }
  }
}
MOTION
Frames:	11
Frame Time:	0.0333333
523.704 85.8777 -157.862 133.765 -78.0541 41.6133 -1.52957 0.0129972 -0.680866 -3.05887 0.044625 -1.36095 -3.05887 0.0446253 -1.36096 -8.30751e-012 -9.0191e-006 -5.27751e-005 9.75669 3.54993 -3.18572 179.409 -11.8167 -92.8829 -31.2112 -64.725 -2.90592 -0.412587 9.54166e-015 1.59028e-015 -44.9856 -19.7931 -28.2591 178.909 7.4218 98.3841 69.9522 67.6304 -80.9596 -2.19042 1.59028e-015 3.18055e-015 -33.4925 14.9634 18.7211 -15.758 3.76785 -175.977 -31.3688 1.59028e-015 -2.38542e-015 24.0306 2.03385 -1.99133 90 -1.97159e-020 -3.18055e-015 -15.6336 -8.04123 -177.969 -29.8074 1.98785e-016 -4.96962e-016 22.2228 -1.67606 -1.5508 90 -2.33652e-020 3.97569e-016 
523.668 85.8756 -157.907 133.66 -78.0266 41.5042 -1.53642 -0.00233398 -0.67272 -3.07275 0.0138322 -1.34507 -3.07275 0.0138324 -1.34508 -8.30765e-012 -9.0191e-006 -5.27751e-005 9.64865 3.52836 -3.19012 179.4 -11.8814 -92.9148 -31.2722 -64.7815 -3.04359 -0.422617 -3.18055e-015 -0 -44.947 -19.7706 -28.1886 178.904 7.45626 98.3885 69.9881 67.6036 -80.9857 -2.21898 -3.97569e-015 -4.77083e-015 -33.4187 14.9728 18.6346 -15.7058 3.67579 -176.014 -31.345 1.59028e-015 -0 24.0563 1.98668 -1.96873 90 -6.82473e-021 -0 -15.5802 -8.02429 -177.983 -29.7813 3.97569e-016 -0 22.2542 -1.64184 -1.5261 90 1.08532e-020 7.95139e-016 
523.631 85.8746 -157.943 133.665 -77.9921 41.497 -1.54611 -0.0166806 -0.671495 -3.0923 -0.0147741 -1.34301 -3.0923 -0.0147739 -1.34302 -8.30753e-012 -9.0191e-006 -5.27751e-005 9.50888 3.49063 -3.18831 179.377 -11.8648 -93.0285 -31.093 -64.8924 -3.04239 -0.420457 3.18055e-015 2.38542e-015 -44.9954 -19.7467 -28.2215 178.906 7.4697 98.3538 70.2895 67.5925 -81.2342 -2.18417 0 1.59028e-015 -33.5035 14.8912 18.7249 -15.705 3.71687 -176.023 -31.3372 1.59028e-015 -0 24.0763 2.02935 -1.94823 90 -1.25594e-020 4.77083e-015 -15.5568 -8.05029 -178 -29.7533 -1.98785e-016 -9.93923e-017 22.2731 -1.63562 -1.49834 90 7.72522e-021 -0 
523.598 85.8735 -157.979 133.83 -78.0034 41.6528 -1.55415 -0.024365 -0.659763 -3.10848 -0.0303635 -1.31976 -3.10848 -0.0303633 -1.31976 -8.30748e-012 -9.0191e-006 -5.27751e-005 9.38608 3.50117 -3.20771 179.37 -11.884 -93.0584 -31.0117 -64.8475 -3.12641 -0.344617 -6.36111e-015 -2.38542e-015 -44.9129 -19.8029 -28.338 178.907 7.4788 98.3381 70.4251 67.5961 -81.3409 -2.19222 0 -0 -33.5136 14.9249 18.6492 -15.6693 3.67973 -176.041 -31.3129 -3.18055e-015 -0 24.1022 1.98343 -1.92895 90 4.54982e-021 -4.77083e-015 -15.5374 -8.00324 -178.003 -29.7308 -1.98785e-016 -9.93923e-017 22.2873 -1.62211 -1.47384 90 -1.12324e-020 -0 
523.564 85.8725 -158.014 134.054 -78.0339 41.8657 -1.5581 -0.023772 -0.650766 -3.11636 -0.0293771 -1.30175 -3.11636 -0.0293769 -1.30176 -8.30738e-012 -9.0191e-006 -5.27751e-005 9.24988 3.48119 -3.23904 179.358 -11.8994 -93.1128 -30.7893 -64.6888 -3.04224 -0.316558 3.18055e-015 -7.95139e-016 -44.8832 -19.9818 -28.4755 178.898 7.51947 98.3605 70.8876 67.5612 -81.7801 -2.14774 7.95139e-016 1.59028e-015 -33.4989 14.7884 18.675 -15.6463 3.77574 -176.037 -31.2987 3.18055e-015 -0 24.1285 2.01244 -1.90979 90 3.79152e-022 -1.59028e-015 -15.5147 -7.96277 -178.007 -29.7074 -1.98785e-016 -0 22.298 -1.64041 -1.44659 90 1.13746e-021 -1.59028e-015 
523.53 85.8714 -158.042 134.398 -78.065 42.1894 -1.56168 -0.0250897 -0.642191 -3.12343 -0.025731 -1.28455 -3.12343 -0.0257308 -1.28456 -8.30768e-012 -9.0191e-006 -5.27751e-005 9.11249 3.44644 -3.26346 179.349 -11.859 -93.1674 -30.5194 -64.716 -2.98134 -0.271478 0 -0 -44.8686 -19.9841 -28.47 178.905 7.51348 98.3163 70.8976 67.548 -81.7388 -2.13748 0 -1.59028e-015 -33.5064 14.8195 18.6995 -15.6383 3.83147 -176.025 -31.2879 -1.59028e-015 -2.38542e-015 24.1583 1.98856 -1.89439 90 -6.82473e-021 -1.59028e-015 -15.5201 -7.91169 -177.998 -29.6853 -3.97569e-016 -0 22.2986 -1.64681 -1.42242 90 -1.04741e-020 -3.97569e-016 
523.492 85.8708 -158.076 134.558 -78.1035 42.3515 -1.5515 -0.0279885 -0.631169 -3.10302 -0.0272762 -1.26253 -3.10302 -0.0272759 -1.26253 -8.30748e-012 -9.0191e-006 -5.27751e-005 8.96896 3.4357 -3.32112 179.349 -11.9236 -93.1509 -30.5025 -64.6775 -3.03019 -0.200608 -3.18055e-015 -7.95139e-016 -44.8464 -19.9992 -28.5162 178.903 7.52979 98.3125 70.9024 67.5344 -81.7171 -2.1144 -2.38542e-015 -1.59028e-015 -33.5675 14.8537 18.7506 -15.5766 3.82785 -176.057 -31.2545 -3.18055e-015 -0 24.1816 1.95491 -1.8658 90 -5.30812e-021 -0 -15.4911 -7.88062 -178.018 -29.6729 1.98785e-016 -9.93923e-017 22.3127 -1.66298 -1.39459 90 -1.72514e-020 7.95139e-016 
523.461 85.87 -158.096 134.743 -78.0846 42.5148 -1.55193 -0.0308872 -0.625573 -3.10407 -0.0422909 -1.25154 -3.10407 -0.0422906 -1.25155 -8.30765e-012 -9.0191e-006 -5.27751e-005 8.87095 3.42378 -3.33523 179.331 -11.8953 -93.2426 -30.1415 -64.7446 -2.79576 -0.213148 -3.18055e-015 -1.59028e-015 -44.8312 -20.0392 -28.5514 178.911 7.50853 98.28 70.8441 67.4929 -81.5951 -2.09588 0 -4.77083e-015 -33.5392 14.8204 18.7538 -15.5976 3.81245 -176.063 -31.2558 0 -7.95139e-016 24.2017 1.92329 -1.84368 90 -2.54743e-021 -0 -15.4997 -7.83013 -178.011 -29.6462 5.96354e-016 -3.97569e-016 22.3172 -1.63009 -1.37125 90 -1.42182e-021 -7.95139e-016 
523.419 85.8698 -158.129 134.936 -78.0855 42.6976 -1.55377 -0.0322048 -0.623569 -3.1078 -0.0470258 -1.24759 -3.1078 -0.0470255 -1.2476 -8.30733e-012 -9.0191e-006 -5.27751e-005 8.89526 3.37335 -3.28167 179.329 -11.8973 -93.2479 -30.036 -64.4831 -2.76138 -0.244129 0 -0 -44.8569 -20.1889 -28.7072 178.91 7.50229 98.294 70.9129 67.4035 -81.6343 -2.05433 0 -3.18055e-015 -33.5897 14.8992 18.8163 -15.5871 3.85598 -176.075 -31.2359 -3.18055e-015 -1.59028e-015 24.2222 1.93652 -1.81972 90 1.13746e-020 -1.59028e-015 -15.4881 -7.79842 -178.026 -29.6189 -1.98785e-016 -9.93923e-017 22.3291 -1.63601 -1.33774 90 -2.19908e-020 1.59028e-015 
523.384 85.87 -158.162 135.194 -78.1194 42.9397 -1.56268 -0.031979 -0.617931 -3.12562 -0.046454 -1.24282 -3.12562 -0.0464538 -1.24283 -8.3076e-012 -9.0191e-006 -5.27751e-005 9.10461 3.38172 -3.2533 179.314 -11.8734 -93.3291 -29.8214 -64.5932 -2.60824 -0.233778 6.36111e-015 3.18055e-015 -44.8203 -20.1122 -28.6716 178.916 7.47852 98.2732 70.8161 67.3588 -81.5353 -2.04115 1.59028e-015 1.59028e-015 -33.535 14.947 18.8455 -15.5577 3.91346 -176.076 -31.2158 3.18055e-015 7.95139e-016 24.2484 1.93551 -1.79555 90 8.72049e-021 1.59028e-015 -15.465 -7.73512 -178.02 -29.5855 1.98785e-016 -0 22.3318 -1.63405 -1.31152 90 -3.8863e-021 3.97569e-016 
523.35 85.8707 -158.2 135.379 -78.1634 43.1075 -1.56633 -0.0317532 -0.613725 -3.1329 -0.0462552 -1.2279 -3.1329 -0.046255 -1.22791 -8.30718e-012 -9.0191e-006 -5.27751e-005 9.43728 3.39765 -3.25898 179.308 -11.9234 -93.3433 -29.8406 -64.6006 -2.59646 -0.238558 -3.18055e-015 -0 -44.8549 -20.1266 -28.7249 178.913 7.49144 98.2791 70.7169 67.3465 -81.4914 -2.01501 0 1.59028e-015 -33.4836 14.9232 18.7887 -15.4967 3.9396 -176.072 -31.1861 -4.77083e-015 -1.59028e-015 24.2764 1.88617 -1.77947 90 -2.27491e-020 -0 -15.4179 -7.67017 -178.01 -29.546 3.97569e-016 -2.98177e-016 22.3342 -1.62129 -1.28578 90 4.90527e-021 7.95139e-016 
